# xmcd CD database file
#
# Track frame offsets:
#	183
#	30340
#	61695
#	77910
#	97380
#	141565
#	160608
#	185730
#	207760
#	227790
#	261060
#	281828
#
# Disc length: 3944 seconds
#
# Revision: 0
# Processed by: cddbd v1.5PL3 Copyright (c) Steve Scherf et al.
# Submitted via: CDex 1.51
#
DISCID=ab0f660c
DTITLE=Harry Allen Trio - I Know That You Know
DYEAR=1992
DGENRE=Jazz
TTITLE0=Call me irresponsible
TTITLE1=Legs
TTITLE2=I want to laugh you right out of my life
TTITLE3=Baby won't you please come home
TTITLE4=It was just one of those things
TTITLE5=I get along without you very well
TTITLE6=Drifting
TTITLE7=I know that you know
TTITLE8=Suriya
TTITLE9=Desafinado
TTITLE10=Sleep
TTITLE11=There'll never be another spring
EXTD=YEAR: 1992
EXTT0=
EXTT1=
EXTT2=
EXTT3=
EXTT4=
EXTT5=
EXTT6=
EXTT7=
EXTT8=
EXTT9=
EXTT10=
EXTT11=
PLAYORDER=
